<svg xmlns="http://www.w3.org/2000/svg" width="32" height="32" viewBox="0 0 32 32"><defs><style>.a{fill:#e2e2e2;}</style></defs><path class="a" d="M32.5,29.147l-7.889-7.921a12.614,12.614,0,0,0,3.14-8.306A13.172,13.172,0,0,0,14.366,0,13.172,13.172,0,0,0,.984,12.92,13.172,13.172,0,0,0,14.366,25.84,13.568,13.568,0,0,0,22.033,23.5l7.948,7.981a1.79,1.79,0,0,0,2.468.047A1.646,1.646,0,0,0,32.5,29.147ZM14.366,3.37a9.736,9.736,0,0,1,9.891,9.55,9.736,9.736,0,0,1-9.891,9.55,9.736,9.736,0,0,1-9.891-9.55A9.736,9.736,0,0,1,14.366,3.37Z" transform="translate(-0.984)"/></svg>